<svg width="27.000000" height="31.000031" viewBox="0 0 27 31" fill="none" xmlns="http://www.w3.org/2000/svg" xmlns:xlink="http://www.w3.org/1999/xlink">
	<desc>
			Created with Pixso.
	</desc>
	<defs/>
	<path id="path" d="M1.5 10.8333L1.5 29.5L25.5 29.5L25.5 10.8333L13.5 1.5L1.5 10.8333Z" fill="#FFFFFF" fill-opacity="0" fill-rule="nonzero"/>
	<path id="path" d="M1.5 29.5L25.5 29.5L25.5 10.8333L13.5 1.5L1.5 10.8333L1.5 29.5Z" stroke="#FFFFFF" stroke-opacity="1.000000" stroke-width="3.000000" stroke-linejoin="round"/>
	<path id="path" d="M9.5 19.3889L9.5 29.5L17.5 29.5L17.5 19.3889L9.5 19.3889Z" fill="#FFFFFF" fill-opacity="0" fill-rule="nonzero"/>
	<path id="path" d="M9.5 29.5L17.5 29.5L17.5 19.3889L9.5 19.3889L9.5 29.5Z" stroke="#FFFFFF" stroke-opacity="1.000000" stroke-width="3.000000" stroke-linejoin="round"/>
	<path id="path" d="M1.52002 30.98L1.5 31C0.659912 31 0 30.34 0 29.5C0 28.66 0.659912 28 1.5 28L1.52002 28.02L1.52002 30.98ZM25.48 28.02L25.5 28C26.3401 28 27 28.66 27 29.5C27 30.34 26.3401 31 25.5 31L25.48 30.98L25.48 28.02Z" fill="#FFFFFF" fill-opacity="0" fill-rule="nonzero"/>
	<path id="path" d="M1.5 29.5L25.5 29.5" stroke="#FFFFFF" stroke-opacity="1.000000" stroke-width="3.000000" stroke-linecap="round"/>
</svg>
